<?xml version="1.0" encoding="UTF-8" standalone="no"?>
<!-- Generator: Adobe Illustrator 16.0.0, SVG Export Plug-In . SVG Version: 6.00 Build 0)  -->

<svg
   xmlns:dc="http://purl.org/dc/elements/1.1/"
   xmlns:cc="http://creativecommons.org/ns#"
   xmlns:rdf="http://www.w3.org/1999/02/22-rdf-syntax-ns#"
   xmlns:svg="http://www.w3.org/2000/svg"
   xmlns="http://www.w3.org/2000/svg"
   xmlns:sodipodi="http://sodipodi.sourceforge.net/DTD/sodipodi-0.dtd"
   xmlns:inkscape="http://www.inkscape.org/namespaces/inkscape"
   version="1.1"
   id="big_ben"
   x="0px"
   y="0px"
   width="205px"
   height="740px"
   viewBox="0 0 205 740"
   enable-background="new 0 0 205 740"
   xml:space="preserve"
   sodipodi:docname="big ben.svg"
   inkscape:version="0.92.0 r15299"><title
     id="title352">big ben</title><metadata
     id="metadata350"><rdf:RDF><cc:Work
         rdf:about=""><dc:format>image/svg+xml</dc:format><dc:type
           rdf:resource="http://purl.org/dc/dcmitype/StillImage" /><dc:title>big ben</dc:title><dc:date>8/14/2017</dc:date><dc:creator><cc:Agent><dc:title>cactus cowboy</dc:title></cc:Agent></dc:creator><dc:description>big ben to fall silent for 36 months starting 2017 - 2020 for 42 million dollar renovations.</dc:description></cc:Work></rdf:RDF></metadata><defs
     id="defs348" /><sodipodi:namedview
     pagecolor="#ffffff"
     bordercolor="#666666"
     borderopacity="1"
     objecttolerance="10"
     gridtolerance="10"
     guidetolerance="10"
     inkscape:pageopacity="0"
     inkscape:pageshadow="2"
     inkscape:window-width="1920"
     inkscape:window-height="1052"
     id="namedview346"
     showgrid="false"
     inkscape:zoom="1"
     inkscape:cx="47.627119"
     inkscape:cy="370"
     inkscape:window-x="-9"
     inkscape:window-y="-9"
     inkscape:window-maximized="1"
     inkscape:current-layer="big_ben" /><g
     id="ben_parts"><polygon
       fill="#C9C9C9"
       stroke="#000000"
       stroke-width="2"
       stroke-linecap="round"
       stroke-linejoin="round"
       points="   103.375,733.499 18,733.499 18,687.063 103.375,687.063 104.626,687.063 190.188,687.063 190.188,733.499 104.626,733.499  "
       id="polygon2" /><polygon
       fill="#C9C9C9"
       stroke="#000000"
       stroke-width="2"
       stroke-linecap="round"
       stroke-linejoin="round"
       points="   103.375,733.499 18,733.499 18,687.063 103.375,687.063 104.626,687.063 190.188,687.063 190.188,733.499 104.626,733.499  "
       id="polygon4" /><polygon
       fill="#C9C9C9"
       stroke="#000000"
       stroke-width="2"
       stroke-linecap="round"
       stroke-linejoin="round"
       points="   102.188,687.063 18,687.063 18,664.063 103.375,664.063 104.626,664.063 190.188,664.063 190.188,687.063 105.938,687.063    190.188,687.063 190.188,664.063 104.626,664.063 190.188,664.063 190.188,687.063 105.938,687.063  "
       id="polygon6" /><polygon
       fill="#C9C9C9"
       stroke="#000000"
       stroke-width="2"
       stroke-linecap="round"
       stroke-linejoin="round"
       points="   102.188,687.063 18,687.063 18,664.063 103.375,664.063 104.626,664.063 190.188,664.063 190.188,687.063 105.938,687.063    190.188,687.063 190.188,664.063 104.626,664.063 190.188,664.063 190.188,687.063 105.938,687.063  "
       id="polygon8" /><polygon
       fill="#C9C9C9"
       stroke="#000000"
       stroke-width="2"
       stroke-linecap="round"
       stroke-linejoin="round"
       points="   103.375,664.063 18,664.063 18,559.313 104.626,559.313 103.375,559.313 190.188,559.313 190.188,664.063 104.626,664.063  "
       id="polygon10" /><polygon
       fill="#C9C9C9"
       stroke="#000000"
       stroke-width="2"
       stroke-linecap="round"
       stroke-linejoin="round"
       points="   103.375,664.063 18,664.063 18,559.313 104.626,559.313 103.375,559.313 190.188,559.313 190.188,664.063 104.626,664.063  "
       id="polygon12" /><polygon
       fill="#C9C9C9"
       stroke="#000000"
       stroke-width="2"
       stroke-linecap="round"
       stroke-linejoin="round"
       points="   100.813,559.313 11.125,559.313 11.125,543.499 102.188,543.499 103.375,543.499 194.313,543.499 194.313,559.313 104.626,559.313     "
       id="polygon14" /><polygon
       fill="#C9C9C9"
       stroke="#000000"
       stroke-width="2"
       stroke-linecap="round"
       stroke-linejoin="round"
       points="   100.813,559.313 11.125,559.313 11.125,543.499 102.188,543.499 103.375,543.499 194.313,543.499 194.313,559.313 104.626,559.313     "
       id="polygon16" /><polygon
       fill="#C9C9C9"
       stroke="#000000"
       stroke-width="2"
       stroke-linecap="round"
       stroke-linejoin="round"
       points="   103.375,508.438 19,508.438 19,543.499 104.626,543.499 190.188,543.499 190.188,508.438 105.938,508.438  "
       id="polygon18" /><polygon
       fill="#C9C9C9"
       stroke="#000000"
       stroke-width="2"
       stroke-linecap="round"
       stroke-linejoin="round"
       points="   103.375,508.438 19,508.438 19,543.499 104.626,543.499 190.188,543.499 190.188,508.438 105.938,508.438  "
       id="polygon20" /><line
       fill="#C9C9C9"
       stroke="#000000"
       stroke-width="2"
       stroke-linecap="round"
       stroke-linejoin="round"
       x1="195.876"
       y1="687.063"
       x2="12.125"
       y2="687.063"
       id="line22" /><line
       fill="#C9C9C9"
       stroke="#000000"
       stroke-width="2"
       stroke-linecap="round"
       stroke-linejoin="round"
       x1="194.313"
       y1="663.938"
       x2="11.125"
       y2="663.938"
       id="line24" /><line
       fill="#C9C9C9"
       stroke="#000000"
       stroke-width="2"
       stroke-linecap="round"
       stroke-linejoin="round"
       x1="201.563"
       y1="543.499"
       x2="5.438"
       y2="543.499"
       id="line26" /><line
       fill="#C9C9C9"
       stroke="#000000"
       stroke-width="2"
       stroke-linecap="round"
       stroke-linejoin="round"
       x1="200.438"
       y1="508.438"
       x2="5.438"
       y2="508.438"
       id="line28" /><line
       fill="#C9C9C9"
       stroke="#000000"
       stroke-width="2"
       stroke-linecap="round"
       stroke-linejoin="round"
       x1="173.626"
       y1="559.313"
       x2="173.626"
       y2="733.499"
       id="line30" /><line
       fill="#C9C9C9"
       stroke="#000000"
       stroke-width="2"
       stroke-linecap="round"
       stroke-linejoin="round"
       x1="159.938"
       y1="559.313"
       x2="159.938"
       y2="733.499"
       id="line32" /><line
       fill="#C9C9C9"
       stroke="#000000"
       stroke-width="2"
       stroke-linecap="round"
       stroke-linejoin="round"
       x1="146.126"
       y1="559.313"
       x2="146.126"
       y2="733.499"
       id="line34" /><line
       fill="#C9C9C9"
       stroke="#000000"
       stroke-width="2"
       stroke-linecap="round"
       stroke-linejoin="round"
       x1="132.438"
       y1="559.313"
       x2="132.438"
       y2="733.499"
       id="line36" /><line
       fill="#C9C9C9"
       stroke="#000000"
       stroke-width="2"
       stroke-linecap="round"
       stroke-linejoin="round"
       x1="118.626"
       y1="559.313"
       x2="118.626"
       y2="733.499"
       id="line38" /><line
       fill="#C9C9C9"
       stroke="#000000"
       stroke-width="2"
       stroke-linecap="round"
       stroke-linejoin="round"
       x1="104.626"
       y1="559.313"
       x2="104.626"
       y2="733.499"
       id="line40" /><line
       fill="#C9C9C9"
       stroke="#000000"
       stroke-width="2"
       stroke-linecap="round"
       stroke-linejoin="round"
       x1="90.5"
       y1="559.313"
       x2="90.5"
       y2="733.499"
       id="line42" /><line
       fill="#C9C9C9"
       stroke="#000000"
       stroke-width="2"
       stroke-linecap="round"
       stroke-linejoin="round"
       x1="76.688"
       y1="559.313"
       x2="76.688"
       y2="733.499"
       id="line44" /><line
       fill="#C9C9C9"
       stroke="#000000"
       stroke-width="2"
       stroke-linecap="round"
       stroke-linejoin="round"
       x1="63"
       y1="559.313"
       x2="63"
       y2="733.499"
       id="line46" /><line
       fill="#C9C9C9"
       stroke="#000000"
       stroke-width="2"
       stroke-linecap="round"
       stroke-linejoin="round"
       x1="49.188"
       y1="559.313"
       x2="49.188"
       y2="733.499"
       id="line48" /><line
       fill="#C9C9C9"
       stroke="#000000"
       stroke-width="2"
       stroke-linecap="round"
       stroke-linejoin="round"
       x1="35.5"
       y1="559.313"
       x2="35.5"
       y2="733.499"
       id="line50" /><line
       fill="#C9C9C9"
       stroke="#000000"
       stroke-width="2"
       stroke-linecap="round"
       stroke-linejoin="round"
       x1="180.313"
       y1="543.499"
       x2="180.313"
       y2="558.624"
       id="line52" /><line
       fill="#C9C9C9"
       stroke="#000000"
       stroke-width="2"
       stroke-linecap="round"
       stroke-linejoin="round"
       x1="163.063"
       y1="543.499"
       x2="163.063"
       y2="558.624"
       id="line54" /><line
       fill="#C9C9C9"
       stroke="#000000"
       stroke-width="2"
       stroke-linecap="round"
       stroke-linejoin="round"
       x1="146.001"
       y1="543.499"
       x2="146.001"
       y2="558.624"
       id="line56" /><line
       fill="#C9C9C9"
       stroke="#000000"
       stroke-width="2"
       stroke-linecap="round"
       stroke-linejoin="round"
       x1="128.751"
       y1="543.499"
       x2="128.751"
       y2="558.624"
       id="line58" /><line
       fill="#C9C9C9"
       stroke="#000000"
       stroke-width="2"
       stroke-linecap="round"
       stroke-linejoin="round"
       x1="111.188"
       y1="543.499"
       x2="111.188"
       y2="558.624"
       id="line60" /><line
       fill="#C9C9C9"
       stroke="#000000"
       stroke-width="2"
       stroke-linecap="round"
       stroke-linejoin="round"
       x1="93.938"
       y1="543.499"
       x2="93.938"
       y2="558.624"
       id="line62" /><line
       fill="#C9C9C9"
       stroke="#000000"
       stroke-width="2"
       stroke-linecap="round"
       stroke-linejoin="round"
       x1="76.563"
       y1="543.499"
       x2="76.563"
       y2="558.624"
       id="line64" /><line
       fill="#C9C9C9"
       stroke="#000000"
       stroke-width="2"
       stroke-linecap="round"
       stroke-linejoin="round"
       x1="59.313"
       y1="543.499"
       x2="59.313"
       y2="558.624"
       id="line66" /><line
       fill="#C9C9C9"
       stroke="#000000"
       stroke-width="2"
       stroke-linecap="round"
       stroke-linejoin="round"
       x1="42.188"
       y1="543.499"
       x2="42.188"
       y2="558.624"
       id="line68" /><line
       fill="#C9C9C9"
       stroke="#000000"
       stroke-width="2"
       stroke-linecap="round"
       stroke-linejoin="round"
       x1="24.813"
       y1="543.499"
       x2="24.813"
       y2="558.624"
       id="line70" /><line
       fill="#C9C9C9"
       stroke="#000000"
       stroke-width="2"
       stroke-linecap="round"
       stroke-linejoin="round"
       x1="35.5"
       y1="543.499"
       x2="35.5"
       y2="508.438"
       id="line72" /><line
       fill="#C9C9C9"
       stroke="#000000"
       stroke-width="2"
       stroke-linecap="round"
       stroke-linejoin="round"
       x1="49.188"
       y1="543.499"
       x2="49.188"
       y2="508.438"
       id="line74" /><line
       fill="#C9C9C9"
       stroke="#000000"
       stroke-width="2"
       stroke-linecap="round"
       stroke-linejoin="round"
       x1="63"
       y1="543.499"
       x2="63"
       y2="508.438"
       id="line76" /><line
       fill="#C9C9C9"
       stroke="#000000"
       stroke-width="2"
       stroke-linecap="round"
       stroke-linejoin="round"
       x1="76.688"
       y1="543.499"
       x2="76.688"
       y2="508.438"
       id="line78" /><line
       fill="#C9C9C9"
       stroke="#000000"
       stroke-width="2"
       stroke-linecap="round"
       stroke-linejoin="round"
       x1="90.5"
       y1="543.499"
       x2="90.5"
       y2="508.438"
       id="line80" /><line
       fill="#C9C9C9"
       stroke="#000000"
       stroke-width="2"
       stroke-linecap="round"
       stroke-linejoin="round"
       x1="104.626"
       y1="543.499"
       x2="104.626"
       y2="508.438"
       id="line82" /><line
       fill="#C9C9C9"
       stroke="#000000"
       stroke-width="2"
       stroke-linecap="round"
       stroke-linejoin="round"
       x1="118.313"
       y1="543.499"
       x2="118.313"
       y2="508.438"
       id="line84" /><line
       fill="#C9C9C9"
       stroke="#000000"
       stroke-width="2"
       stroke-linecap="round"
       stroke-linejoin="round"
       x1="132.438"
       y1="543.499"
       x2="132.438"
       y2="508.438"
       id="line86" /><line
       fill="#C9C9C9"
       stroke="#000000"
       stroke-width="2"
       stroke-linecap="round"
       stroke-linejoin="round"
       x1="146.126"
       y1="543.499"
       x2="146.126"
       y2="508.438"
       id="line88" /><line
       fill="#C9C9C9"
       stroke="#000000"
       stroke-width="2"
       stroke-linecap="round"
       stroke-linejoin="round"
       x1="159.688"
       y1="543.499"
       x2="159.688"
       y2="508.438"
       id="line90" /><line
       fill="#C9C9C9"
       stroke="#000000"
       stroke-width="2"
       stroke-linecap="round"
       stroke-linejoin="round"
       x1="173.626"
       y1="543.499"
       x2="173.626"
       y2="508.438"
       id="line92" /><polygon
       fill="#C9C9C9"
       stroke="#000000"
       stroke-width="2"
       stroke-linecap="round"
       stroke-linejoin="round"
       points="   190.188,543.499 193.876,540.499 196.688,536.813 199.126,532.813 200.251,528.124 200.251,523.563 199.126,518.749    196.688,514.874 193.876,511.188 190.188,508.438  "
       id="polygon94" /><polygon
       fill="#C9C9C9"
       stroke="#000000"
       stroke-width="2"
       stroke-linecap="round"
       stroke-linejoin="round"
       points="   190.188,543.499 193.876,540.499 196.688,536.813 199.126,532.813 200.251,528.124 200.251,523.563 199.126,518.749    196.688,514.874 193.876,511.188 190.188,508.438  "
       id="polygon96" /><polygon
       fill="#C9C9C9"
       stroke="#000000"
       stroke-width="2"
       stroke-linecap="round"
       stroke-linejoin="round"
       points="19,543.499    15.125,540.499 11.875,536.813 9.875,532.813 8.688,528.124 8.688,523.563 9.875,518.749 11.875,514.874 15.125,511.188    19,508.438  "
       id="polygon98" /><polygon
       fill="#C9C9C9"
       stroke="#000000"
       stroke-width="2"
       stroke-linecap="round"
       stroke-linejoin="round"
       points="19,543.499    15.125,540.499 11.875,536.813 9.875,532.813 8.688,528.124 8.688,523.563 9.875,518.749 11.875,514.874 15.125,511.188    19,508.438  "
       id="polygon100" /><polygon
       fill="#C9C9C9"
       stroke="#000000"
       stroke-width="2"
       stroke-linecap="round"
       stroke-linejoin="round"
       points="13.25,504.063    13.25,390.438 16.688,390.438 16.688,376.499 188.751,376.499 188.751,390.438 192.313,390.438 192.313,504.063  "
       id="polygon102" /><polygon
       fill="#C9C9C9"
       stroke="#000000"
       stroke-width="2"
       stroke-linecap="round"
       stroke-linejoin="round"
       points="13.25,504.063    13.25,390.438 16.688,390.438 16.688,376.499 188.751,376.499 188.751,390.438 192.313,390.438 192.313,504.063  "
       id="polygon104" /><rect
       x="53.625"
       y="393.749"
       fill="#C9C9C9"
       stroke="#000000"
       stroke-width="2"
       stroke-linecap="round"
       stroke-linejoin="round"
       width="98.5"
       height="101.625"
       id="rect106" /><rect
       x="53.625"
       y="393.749"
       fill="#C9C9C9"
       stroke="#000000"
       stroke-width="2"
       stroke-linecap="round"
       stroke-linejoin="round"
       width="98.5"
       height="101.625"
       id="rect108" /><polyline
       fill="#C9C9C9"
       stroke="#000000"
       stroke-width="2"
       stroke-linecap="round"
       stroke-linejoin="round"
       points="   163.376,504.063 163.376,393.749 185.313,393.749 185.313,504.063 177.188,504.063 177.188,393.749 171.376,393.749    171.376,504.063  "
       id="polyline110" /><line
       fill="#C9C9C9"
       stroke="#000000"
       stroke-width="2"
       stroke-linecap="round"
       stroke-linejoin="round"
       x1="163.376"
       y1="470.813"
       x2="185.313"
       y2="470.813"
       id="line112" /><line
       fill="#C9C9C9"
       stroke="#000000"
       stroke-width="2"
       stroke-linecap="round"
       stroke-linejoin="round"
       x1="163.376"
       y1="458.874"
       x2="185.313"
       y2="458.874"
       id="line114" /><line
       fill="#C9C9C9"
       stroke="#000000"
       stroke-width="2"
       stroke-linecap="round"
       stroke-linejoin="round"
       x1="163.376"
       y1="429.624"
       x2="185.313"
       y2="429.624"
       id="line116" /><line
       fill="#C9C9C9"
       stroke="#000000"
       stroke-width="2"
       stroke-linecap="round"
       stroke-linejoin="round"
       x1="163.376"
       y1="419.688"
       x2="185.313"
       y2="419.688"
       id="line118" /><polyline
       fill="#C9C9C9"
       stroke="#000000"
       stroke-width="2"
       stroke-linecap="round"
       stroke-linejoin="round"
       points="   20.375,504.063 20.375,393.749 42.375,393.749 42.375,504.063 34.375,504.063 34.375,393.749 28.5,393.749 28.5,504.063  "
       id="polyline120" /><line
       fill="#C9C9C9"
       stroke="#000000"
       stroke-width="2"
       stroke-linecap="round"
       stroke-linejoin="round"
       x1="20.375"
       y1="470.813"
       x2="42.375"
       y2="470.813"
       id="line122" /><line
       fill="#C9C9C9"
       stroke="#000000"
       stroke-width="2"
       stroke-linecap="round"
       stroke-linejoin="round"
       x1="20.375"
       y1="458.874"
       x2="42.375"
       y2="458.874"
       id="line124" /><line
       fill="#C9C9C9"
       stroke="#000000"
       stroke-width="2"
       stroke-linecap="round"
       stroke-linejoin="round"
       x1="20.375"
       y1="429.624"
       x2="42.375"
       y2="429.624"
       id="line126" /><line
       fill="#C9C9C9"
       stroke="#000000"
       stroke-width="2"
       stroke-linecap="round"
       stroke-linejoin="round"
       x1="20.375"
       y1="419.688"
       x2="42.375"
       y2="419.688"
       id="line128" /><line
       fill="#C9C9C9"
       stroke="#000000"
       stroke-width="2"
       stroke-linecap="round"
       stroke-linejoin="round"
       x1="6.563"
       y1="384.874"
       x2="199.563"
       y2="384.874"
       id="line130" /><polygon
       fill="#C9C9C9"
       stroke="#000000"
       stroke-width="2"
       stroke-linecap="round"
       stroke-linejoin="round"
       points="   102.188,490.938 100.813,490.938 93.5,489.374 86.813,487.063 80.438,483.374 74.563,479.124 69.875,473.688 65.75,467.813    62.438,461.124 60.75,454.563 59.625,447.438 59.75,440.313 61.188,433.188 63.438,426.499 67,420.374 71.438,414.688    76.688,409.563 82.688,405.874 89.25,402.688 96.063,400.563 103.5,399.313 103.375,399.313 104.626,399.438 112.063,400.563    119.063,403.249 125.313,406.438 131.126,410.999 136.563,415.938 140.251,421.499 143.813,427.938 146.126,434.749    147.251,441.874 146.813,448.749 145.688,455.874 143.563,462.874 140.251,468.999 136.001,475.124 130.751,480.124    125.001,484.249 118.626,487.499 111.751,489.813 104.626,490.938  "
       id="polygon132" /><path
       fill="#FFFFFF"
       stroke="#000000"
       stroke-width="2"
       stroke-linecap="round"
       stroke-linejoin="round"
       d="M102.188,490.938   c-55.596-3.919-54.46-90.533,1.188-91.625c20.958-0.411,45.177,22.151,43.807,43.636   C145.598,467.793,129.345,490.903,102.188,490.938z"
       id="path134" /><line
       fill="#C9C9C9"
       stroke="#000000"
       stroke-width="2"
       stroke-linecap="round"
       stroke-linejoin="round"
       x1="103.375"
       y1="405.438"
       x2="103.375"
       y2="412.563"
       id="line136" /><line
       fill="#C9C9C9"
       stroke="#000000"
       stroke-width="2"
       stroke-linecap="round"
       stroke-linejoin="round"
       x1="123.001"
       y1="411.124"
       x2="119.438"
       y2="418.374"
       id="line138" /><line
       fill="#C9C9C9"
       stroke="#000000"
       stroke-width="2"
       stroke-linecap="round"
       stroke-linejoin="round"
       x1="136.563"
       y1="427.063"
       x2="130.001"
       y2="429.624"
       id="line140" /><line
       fill="#C9C9C9"
       stroke="#000000"
       stroke-width="2"
       stroke-linecap="round"
       stroke-linejoin="round"
       x1="142.563"
       y1="445.624"
       x2="135.876"
       y2="445.624"
       id="line142" /><line
       fill="#C9C9C9"
       stroke="#000000"
       stroke-width="2"
       stroke-linecap="round"
       stroke-linejoin="round"
       x1="138.001"
       y1="461.874"
       x2="132.438"
       y2="460.438"
       id="line144" /><line
       fill="#C9C9C9"
       stroke="#000000"
       stroke-width="2"
       stroke-linecap="round"
       stroke-linejoin="round"
       x1="123.001"
       y1="479.374"
       x2="119.438"
       y2="472.124"
       id="line146" /><line
       fill="#C9C9C9"
       stroke="#000000"
       stroke-width="2"
       stroke-linecap="round"
       stroke-linejoin="round"
       x1="102.813"
       y1="484.813"
       x2="102.813"
       y2="479.124"
       id="line148" /><line
       fill="#C9C9C9"
       stroke="#000000"
       stroke-width="2"
       stroke-linecap="round"
       stroke-linejoin="round"
       x1="83.688"
       y1="479.374"
       x2="87.25"
       y2="472.124"
       id="line150" /><line
       fill="#C9C9C9"
       stroke="#000000"
       stroke-width="2"
       stroke-linecap="round"
       stroke-linejoin="round"
       x1="69"
       y1="461.874"
       x2="74.563"
       y2="460.438"
       id="line152" /><line
       fill="#C9C9C9"
       stroke="#000000"
       stroke-width="2"
       stroke-linecap="round"
       stroke-linejoin="round"
       x1="64"
       y1="445.624"
       x2="71.313"
       y2="445.624"
       id="line154" /><line
       fill="#C9C9C9"
       stroke="#000000"
       stroke-width="2"
       stroke-linecap="round"
       stroke-linejoin="round"
       x1="66.75"
       y1="432.938"
       x2="73.688"
       y2="435.499"
       id="line156" /><line
       fill="#C9C9C9"
       stroke="#000000"
       stroke-width="2"
       stroke-linecap="round"
       stroke-linejoin="round"
       x1="69.875"
       y1="427.063"
       x2="76.688"
       y2="429.624"
       id="line158" /><line
       fill="#C9C9C9"
       stroke="#000000"
       stroke-width="2"
       stroke-linecap="round"
       stroke-linejoin="round"
       x1="83.688"
       y1="411.124"
       x2="87.25"
       y2="418.374"
       id="line160" /><line
       fill="#C9C9C9"
       stroke="#000000"
       stroke-width="2"
       stroke-linecap="round"
       stroke-linejoin="round"
       x1="129.001"
       y1="437.063"
       x2="95.25"
       y2="448.749"
       id="line162" /><line
       fill="#C9C9C9"
       stroke="#000000"
       stroke-width="2"
       stroke-linecap="round"
       stroke-linejoin="round"
       x1="140.001"
       y1="432.938"
       x2="133.438"
       y2="435.499"
       id="line164" /><line
       fill="#C9C9C9"
       stroke="#000000"
       stroke-width="2"
       stroke-linecap="round"
       stroke-linejoin="round"
       x1="102.188"
       y1="438.749"
       x2="102.188"
       y2="460.438"
       id="line166" /><line
       fill="#C9C9C9"
       stroke="#000000"
       stroke-width="2"
       stroke-linecap="round"
       stroke-linejoin="round"
       x1="102.188"
       y1="473.688"
       x2="102.188"
       y2="466.249"
       id="line168" /><polygon
       fill="#C9C9C9"
       stroke="#000000"
       stroke-width="2"
       stroke-linecap="round"
       stroke-linejoin="round"
       points="   33.375,323.188 29.938,348.125 29.938,376.313 176.626,376.313 176.626,348.125 173.626,323.188  "
       id="polygon170" /><polygon
       fill="#C9C9C9"
       stroke="#000000"
       stroke-width="2"
       stroke-linecap="round"
       stroke-linejoin="round"
       points="   33.375,323.188 29.938,348.125 29.938,376.313 176.626,376.313 176.626,348.125 173.626,323.188  "
       id="polygon172" /><polygon
       fill="#C9C9C9"
       stroke="#000000"
       stroke-width="2"
       stroke-linecap="round"
       stroke-linejoin="round"
       points="   102.188,316.313 33.375,316.313 33.375,323.188 102.188,323.188 104.626,323.188 173.626,323.188 173.626,316.313 104.626,316.313     "
       id="polygon174" /><polygon
       fill="#C9C9C9"
       stroke="#000000"
       stroke-width="2"
       stroke-linecap="round"
       stroke-linejoin="round"
       points="   102.188,316.313 33.375,316.313 33.375,323.188 102.188,323.188 104.626,323.188 173.626,323.188 173.626,316.313 104.626,316.313     "
       id="polygon176" /><polygon
       fill="#C9C9C9"
       stroke="#000000"
       stroke-width="2"
       stroke-linecap="round"
       stroke-linejoin="round"
       points="   100.063,316.313 38.625,316.313 38.625,307.813 43.063,302.5 49.5,292.688 52.75,283.25 55.875,273.313 58.188,265.063 59,256.625    63.438,256.625 63.438,193.375 67.75,193.375 67.75,189.375 102.188,189.375 136.563,189.375 136.563,193.375 141.251,193.375    141.251,256.625 145.376,256.625 146.688,265.063 148.563,273.313 152.126,283.25 155.126,292.688 161.501,302.5 165.813,307.813    165.813,316.313 104.626,316.313  "
       id="polygon178" /><polygon
       fill="#C9C9C9"
       stroke="#000000"
       stroke-width="2"
       stroke-linecap="round"
       stroke-linejoin="round"
       points="   100.063,316.313 38.625,316.313 38.625,307.813 43.063,302.5 49.5,292.688 52.75,283.25 55.875,273.313 58.188,265.063 59,256.625    63.438,256.625 63.438,193.375 67.75,193.375 67.75,189.375 102.188,189.375 136.563,189.375 136.563,193.375 141.251,193.375    141.251,256.625 145.376,256.625 146.688,265.063 148.563,273.313 152.126,283.25 155.126,292.688 161.501,302.5 165.813,307.813    165.813,316.313 104.626,316.313  "
       id="polygon180" /><rect
       x="150.251"
       y="343.875"
       fill="#C9C9C9"
       stroke="#000000"
       stroke-width="2"
       stroke-linecap="round"
       stroke-linejoin="round"
       width="4.687"
       height="19.625"
       id="rect182" /><rect
       x="150.251"
       y="343.875"
       fill="#C9C9C9"
       stroke="#000000"
       stroke-width="2"
       stroke-linecap="round"
       stroke-linejoin="round"
       width="4.687"
       height="19.625"
       id="rect184" /><rect
       x="130.438"
       y="343.875"
       fill="#C9C9C9"
       stroke="#000000"
       stroke-width="2"
       stroke-linecap="round"
       stroke-linejoin="round"
       width="4.563"
       height="19.625"
       id="rect186" /><rect
       x="130.438"
       y="343.875"
       fill="#C9C9C9"
       stroke="#000000"
       stroke-width="2"
       stroke-linecap="round"
       stroke-linejoin="round"
       width="4.563"
       height="19.625"
       id="rect188" /><rect
       x="110.313"
       y="343.875"
       fill="#C9C9C9"
       stroke="#000000"
       stroke-width="2"
       stroke-linecap="round"
       stroke-linejoin="round"
       width="4.75"
       height="19.625"
       id="rect190" /><rect
       x="110.313"
       y="343.875"
       fill="#C9C9C9"
       stroke="#000000"
       stroke-width="2"
       stroke-linecap="round"
       stroke-linejoin="round"
       width="4.75"
       height="19.625"
       id="rect192" /><rect
       x="90.375"
       y="343.875"
       fill="#C9C9C9"
       stroke="#000000"
       stroke-width="2"
       stroke-linecap="round"
       stroke-linejoin="round"
       width="4.687"
       height="19.625"
       id="rect194" /><rect
       x="90.375"
       y="343.875"
       fill="#C9C9C9"
       stroke="#000000"
       stroke-width="2"
       stroke-linecap="round"
       stroke-linejoin="round"
       width="4.687"
       height="19.625"
       id="rect196" /><rect
       x="70.438"
       y="343.875"
       fill="#C9C9C9"
       stroke="#000000"
       stroke-width="2"
       stroke-linecap="round"
       stroke-linejoin="round"
       width="4.688"
       height="19.625"
       id="rect198" /><rect
       x="70.438"
       y="343.875"
       fill="#C9C9C9"
       stroke="#000000"
       stroke-width="2"
       stroke-linecap="round"
       stroke-linejoin="round"
       width="4.688"
       height="19.625"
       id="rect200" /><rect
       x="50.5"
       y="343.875"
       fill="#C9C9C9"
       stroke="#000000"
       stroke-width="2"
       stroke-linecap="round"
       stroke-linejoin="round"
       width="4.562"
       height="19.625"
       id="rect202" /><rect
       x="50.5"
       y="343.875"
       fill="#C9C9C9"
       stroke="#000000"
       stroke-width="2"
       stroke-linecap="round"
       stroke-linejoin="round"
       width="4.562"
       height="19.625"
       id="rect204" /><rect
       x="141.563"
       y="297.125"
       fill="#C9C9C9"
       stroke="#000000"
       stroke-width="2"
       stroke-linecap="round"
       stroke-linejoin="round"
       width="6.563"
       height="12.375"
       id="rect206" /><rect
       x="141.563"
       y="297.125"
       fill="#C9C9C9"
       stroke="#000000"
       stroke-width="2"
       stroke-linecap="round"
       stroke-linejoin="round"
       width="6.563"
       height="12.375"
       id="rect208" /><rect
       x="113.751"
       y="297.125"
       fill="#C9C9C9"
       stroke="#000000"
       stroke-width="2"
       stroke-linecap="round"
       stroke-linejoin="round"
       width="6.437"
       height="12.375"
       id="rect210" /><rect
       x="113.751"
       y="297.125"
       fill="#C9C9C9"
       stroke="#000000"
       stroke-width="2"
       stroke-linecap="round"
       stroke-linejoin="round"
       width="6.437"
       height="12.375"
       id="rect212" /><rect
       x="85.688"
       y="297.125"
       fill="#C9C9C9"
       stroke="#000000"
       stroke-width="2"
       stroke-linecap="round"
       stroke-linejoin="round"
       width="6.438"
       height="12.375"
       id="rect214" /><rect
       x="85.688"
       y="297.125"
       fill="#C9C9C9"
       stroke="#000000"
       stroke-width="2"
       stroke-linecap="round"
       stroke-linejoin="round"
       width="6.438"
       height="12.375"
       id="rect216" /><rect
       x="57.625"
       y="297.125"
       fill="#C9C9C9"
       stroke="#000000"
       stroke-width="2"
       stroke-linecap="round"
       stroke-linejoin="round"
       width="6.562"
       height="12.375"
       id="rect218" /><rect
       x="57.625"
       y="297.125"
       fill="#C9C9C9"
       stroke="#000000"
       stroke-width="2"
       stroke-linecap="round"
       stroke-linejoin="round"
       width="6.562"
       height="12.375"
       id="rect220" /><rect
       x="127.751"
       y="269.438"
       fill="#C9C9C9"
       stroke="#000000"
       stroke-width="2"
       stroke-linecap="round"
       stroke-linejoin="round"
       width="6.375"
       height="12.437"
       id="rect222" /><rect
       x="127.751"
       y="269.438"
       fill="#C9C9C9"
       stroke="#000000"
       stroke-width="2"
       stroke-linecap="round"
       stroke-linejoin="round"
       width="6.375"
       height="12.437"
       id="rect224" /><rect
       x="100.813"
       y="269.438"
       fill="#C9C9C9"
       stroke="#000000"
       stroke-width="2"
       stroke-linecap="round"
       stroke-linejoin="round"
       width="6.375"
       height="12.437"
       id="rect226" /><rect
       x="100.813"
       y="269.438"
       fill="#C9C9C9"
       stroke="#000000"
       stroke-width="2"
       stroke-linecap="round"
       stroke-linejoin="round"
       width="6.375"
       height="12.437"
       id="rect228" /><rect
       x="73.688"
       y="269.438"
       fill="#C9C9C9"
       stroke="#000000"
       stroke-width="2"
       stroke-linecap="round"
       stroke-linejoin="round"
       width="6.563"
       height="12.437"
       id="rect230" /><rect
       x="73.688"
       y="269.438"
       fill="#C9C9C9"
       stroke="#000000"
       stroke-width="2"
       stroke-linecap="round"
       stroke-linejoin="round"
       width="6.563"
       height="12.437"
       id="rect232" /><line
       fill="#C9C9C9"
       stroke="#000000"
       stroke-width="2"
       stroke-linecap="round"
       stroke-linejoin="round"
       x1="179.063"
       y1="317.313"
       x2="27.938"
       y2="317.313"
       id="line234" /><line
       fill="#C9C9C9"
       stroke="#000000"
       stroke-width="2"
       stroke-linecap="round"
       stroke-linejoin="round"
       x1="173.626"
       y1="316.313"
       x2="173.626"
       y2="285.688"
       id="line236" /><line
       fill="#C9C9C9"
       stroke="#000000"
       stroke-width="2"
       stroke-linecap="round"
       stroke-linejoin="round"
       x1="176.501"
       y1="285.688"
       x2="175.313"
       y2="283.25"
       id="line238" /><line
       fill="#C9C9C9"
       stroke="#000000"
       stroke-width="2"
       stroke-linecap="round"
       stroke-linejoin="round"
       x1="169.751"
       y1="285.688"
       x2="170.751"
       y2="283.25"
       id="line240" /><line
       fill="#C9C9C9"
       stroke="#000000"
       stroke-width="2"
       stroke-linecap="round"
       stroke-linejoin="round"
       x1="173.938"
       y1="270.75"
       x2="173.938"
       y2="278.875"
       id="line242" /><line
       fill="#C9C9C9"
       stroke="#000000"
       stroke-width="2"
       stroke-linecap="round"
       stroke-linejoin="round"
       x1="33.688"
       y1="316.313"
       x2="33.688"
       y2="285.688"
       id="line244" /><line
       fill="#C9C9C9"
       stroke="#000000"
       stroke-width="2"
       stroke-linecap="round"
       stroke-linejoin="round"
       x1="37.063"
       y1="286"
       x2="35.625"
       y2="283.438"
       id="line246" /><line
       fill="#C9C9C9"
       stroke="#000000"
       stroke-width="2"
       stroke-linecap="round"
       stroke-linejoin="round"
       x1="30.688"
       y1="286"
       x2="31.5"
       y2="283.438"
       id="line248" /><line
       fill="#C9C9C9"
       stroke="#000000"
       stroke-width="2"
       stroke-linecap="round"
       stroke-linejoin="round"
       x1="34.938"
       y1="271"
       x2="34.938"
       y2="279.125"
       id="line250" /><line
       fill="#C9C9C9"
       stroke="#000000"
       stroke-width="2"
       stroke-linecap="round"
       stroke-linejoin="round"
       x1="136.563"
       y1="256.625"
       x2="132.751"
       y2="256.625"
       id="line252" /><line
       fill="#C9C9C9"
       stroke="#000000"
       stroke-width="2"
       stroke-linecap="round"
       stroke-linejoin="round"
       x1="127.188"
       y1="256.625"
       x2="122.751"
       y2="256.625"
       id="line254" /><line
       fill="#C9C9C9"
       stroke="#000000"
       stroke-width="2"
       stroke-linecap="round"
       stroke-linejoin="round"
       x1="117.438"
       y1="256.625"
       x2="113.501"
       y2="256.625"
       id="line256" /><line
       fill="#C9C9C9"
       stroke="#000000"
       stroke-width="2"
       stroke-linecap="round"
       stroke-linejoin="round"
       x1="107.751"
       y1="256.625"
       x2="103.5"
       y2="256.625"
       id="line258" /><line
       fill="#C9C9C9"
       stroke="#000000"
       stroke-width="2"
       stroke-linecap="round"
       stroke-linejoin="round"
       x1="98.063"
       y1="256.625"
       x2="93.688"
       y2="256.625"
       id="line260" /><line
       fill="#C9C9C9"
       stroke="#000000"
       stroke-width="2"
       stroke-linecap="round"
       stroke-linejoin="round"
       x1="88.375"
       y1="256.625"
       x2="84.125"
       y2="256.625"
       id="line262" /><line
       fill="#C9C9C9"
       stroke="#000000"
       stroke-width="2"
       stroke-linecap="round"
       stroke-linejoin="round"
       x1="78.563"
       y1="256.625"
       x2="74.438"
       y2="256.625"
       id="line264" /><line
       fill="#C9C9C9"
       stroke="#000000"
       stroke-width="2"
       stroke-linecap="round"
       stroke-linejoin="round"
       x1="69"
       y1="256.625"
       x2="64.563"
       y2="256.625"
       id="line266" /><line
       fill="#C9C9C9"
       stroke="#000000"
       stroke-width="2"
       stroke-linecap="round"
       stroke-linejoin="round"
       x1="126.438"
       y1="223.875"
       x2="126.438"
       y2="244.5"
       id="line268" /><line
       fill="#C9C9C9"
       stroke="#000000"
       stroke-width="2"
       stroke-linecap="round"
       stroke-linejoin="round"
       x1="117.063"
       y1="223.875"
       x2="117.063"
       y2="244.5"
       id="line270" /><line
       fill="#C9C9C9"
       stroke="#000000"
       stroke-width="2"
       stroke-linecap="round"
       stroke-linejoin="round"
       x1="107.188"
       y1="223.875"
       x2="107.188"
       y2="244.5"
       id="line272" /><line
       fill="#C9C9C9"
       stroke="#000000"
       stroke-width="2"
       stroke-linecap="round"
       stroke-linejoin="round"
       x1="97.625"
       y1="223.875"
       x2="97.625"
       y2="244.5"
       id="line274" /><line
       fill="#C9C9C9"
       stroke="#000000"
       stroke-width="2"
       stroke-linecap="round"
       stroke-linejoin="round"
       x1="87.938"
       y1="223.875"
       x2="87.938"
       y2="244.5"
       id="line276" /><line
       fill="#C9C9C9"
       stroke="#000000"
       stroke-width="2"
       stroke-linecap="round"
       stroke-linejoin="round"
       x1="77.875"
       y1="223.875"
       x2="77.875"
       y2="244.5"
       id="line278" /><line
       fill="#C9C9C9"
       stroke="#000000"
       stroke-width="2"
       stroke-linecap="round"
       stroke-linejoin="round"
       x1="129.001"
       y1="211.188"
       x2="129.001"
       y2="217"
       id="line280" /><line
       fill="#C9C9C9"
       stroke="#000000"
       stroke-width="2"
       stroke-linecap="round"
       stroke-linejoin="round"
       x1="121.626"
       y1="211.188"
       x2="121.626"
       y2="217"
       id="line282" /><line
       fill="#C9C9C9"
       stroke="#000000"
       stroke-width="2"
       stroke-linecap="round"
       stroke-linejoin="round"
       x1="113.751"
       y1="211.188"
       x2="113.751"
       y2="217"
       id="line284" /><line
       fill="#C9C9C9"
       stroke="#000000"
       stroke-width="2"
       stroke-linecap="round"
       stroke-linejoin="round"
       x1="106.501"
       y1="211.188"
       x2="106.501"
       y2="217"
       id="line286" /><line
       fill="#C9C9C9"
       stroke="#000000"
       stroke-width="2"
       stroke-linecap="round"
       stroke-linejoin="round"
       x1="98.813"
       y1="211.188"
       x2="98.813"
       y2="217"
       id="line288" /><line
       fill="#C9C9C9"
       stroke="#000000"
       stroke-width="2"
       stroke-linecap="round"
       stroke-linejoin="round"
       x1="91.375"
       y1="211.188"
       x2="91.375"
       y2="217"
       id="line290" /><line
       fill="#C9C9C9"
       stroke="#000000"
       stroke-width="2"
       stroke-linecap="round"
       stroke-linejoin="round"
       x1="83.813"
       y1="211.188"
       x2="83.813"
       y2="217"
       id="line292" /><line
       fill="#C9C9C9"
       stroke="#000000"
       stroke-width="2"
       stroke-linecap="round"
       stroke-linejoin="round"
       x1="76"
       y1="211.188"
       x2="76"
       y2="217"
       id="line294" /><line
       fill="#C9C9C9"
       stroke="#000000"
       stroke-width="2"
       stroke-linecap="round"
       stroke-linejoin="round"
       x1="141.251"
       y1="204.625"
       x2="63.75"
       y2="204.625"
       id="line296" /><line
       fill="#C9C9C9"
       stroke="#000000"
       stroke-width="2"
       stroke-linecap="round"
       stroke-linejoin="round"
       x1="139.001"
       y1="194.75"
       x2="65.75"
       y2="194.75"
       id="line298" /><polygon
       fill="#C9C9C9"
       stroke="#000000"
       stroke-width="2"
       stroke-linecap="round"
       stroke-linejoin="round"
       points="   100.063,189.375 68.313,189.375 72.563,178.5 77,165.813 83.813,144.063 86.688,133.375 89.563,123.063 92.813,107.125 95.25,91    98.063,56.688 93.688,55.5 92.25,45.688 101.625,39 110.938,45.688 109.938,55.5 105.626,56.688 106.501,73.625 108.501,91.313    110.938,106.813 113.751,123.063 119.438,144.438 126.438,165.813 131.313,178.25 136.001,189.375 103.5,189.375  "
       id="polygon300" /><polygon
       fill="#C9C9C9"
       stroke="#000000"
       stroke-width="2"
       stroke-linecap="round"
       stroke-linejoin="round"
       points="   100.063,189.375 68.313,189.375 72.563,178.5 77,165.813 83.813,144.063 86.688,133.375 89.563,123.063 92.813,107.125 95.25,91    98.063,56.688 93.688,55.5 92.25,45.688 101.625,39 110.938,45.688 109.938,55.5 105.626,56.688 106.501,73.625 108.501,91.313    110.938,106.813 113.751,123.063 119.438,144.438 126.438,165.813 131.313,178.25 136.001,189.375 103.5,189.375  "
       id="polygon302" /><line
       fill="#C9C9C9"
       stroke="#000000"
       stroke-width="2"
       stroke-linecap="round"
       stroke-linejoin="round"
       x1="141.251"
       y1="199.063"
       x2="141.251"
       y2="146.625"
       id="line304" /><line
       fill="#C9C9C9"
       stroke="#000000"
       stroke-width="2"
       stroke-linecap="round"
       stroke-linejoin="round"
       x1="135.876"
       y1="157.563"
       x2="147.563"
       y2="157.563"
       id="line306" /><line
       fill="#C9C9C9"
       stroke="#000000"
       stroke-width="2"
       stroke-linecap="round"
       stroke-linejoin="round"
       x1="141.251"
       y1="142.188"
       x2="141.251"
       y2="139.625"
       id="line308" /><line
       fill="#C9C9C9"
       stroke="#000000"
       stroke-width="2"
       stroke-linecap="round"
       stroke-linejoin="round"
       x1="63.75"
       y1="199.063"
       x2="63.75"
       y2="146.625"
       id="line310" /><line
       fill="#C9C9C9"
       stroke="#000000"
       stroke-width="2"
       stroke-linecap="round"
       stroke-linejoin="round"
       x1="58.188"
       y1="157.563"
       x2="70"
       y2="157.563"
       id="line312" /><line
       fill="#C9C9C9"
       stroke="#000000"
       stroke-width="2"
       stroke-linecap="round"
       stroke-linejoin="round"
       x1="63.75"
       y1="142.188"
       x2="63.75"
       y2="139.625"
       id="line314" /><line
       fill="#C9C9C9"
       stroke="#000000"
       stroke-width="2"
       stroke-linecap="round"
       stroke-linejoin="round"
       x1="130.563"
       y1="189.375"
       x2="130.313"
       y2="175.25"
       id="line316" /><line
       fill="#C9C9C9"
       stroke="#000000"
       stroke-width="2"
       stroke-linecap="round"
       stroke-linejoin="round"
       x1="124.188"
       y1="189.375"
       x2="124.188"
       y2="158.875"
       id="line318" /><line
       fill="#C9C9C9"
       stroke="#000000"
       stroke-width="2"
       stroke-linecap="round"
       stroke-linejoin="round"
       x1="117.438"
       y1="189.375"
       x2="117.438"
       y2="138.063"
       id="line320" /><line
       fill="#C9C9C9"
       stroke="#000000"
       stroke-width="2"
       stroke-linecap="round"
       stroke-linejoin="round"
       x1="110.938"
       y1="189.375"
       x2="110.938"
       y2="108.563"
       id="line322" /><line
       fill="#C9C9C9"
       stroke="#000000"
       stroke-width="2"
       stroke-linecap="round"
       stroke-linejoin="round"
       x1="104.626"
       y1="189.375"
       x2="104.626"
       y2="56.688"
       id="line324" /><line
       fill="#C9C9C9"
       stroke="#000000"
       stroke-width="2"
       stroke-linecap="round"
       stroke-linejoin="round"
       x1="73"
       y1="189.375"
       x2="73"
       y2="176.375"
       id="line326" /><line
       fill="#C9C9C9"
       stroke="#000000"
       stroke-width="2"
       stroke-linecap="round"
       stroke-linejoin="round"
       x1="79.688"
       y1="189.375"
       x2="79.688"
       y2="157.875"
       id="line328" /><line
       fill="#C9C9C9"
       stroke="#000000"
       stroke-width="2"
       stroke-linecap="round"
       stroke-linejoin="round"
       x1="86.25"
       y1="189.375"
       x2="86.25"
       y2="135.625"
       id="line330" /><line
       fill="#C9C9C9"
       stroke="#000000"
       stroke-width="2"
       stroke-linecap="round"
       stroke-linejoin="round"
       x1="92.813"
       y1="189.375"
       x2="92.813"
       y2="108.563"
       id="line332" /><line
       fill="#C9C9C9"
       stroke="#000000"
       stroke-width="2"
       stroke-linecap="round"
       stroke-linejoin="round"
       x1="98.938"
       y1="189.375"
       x2="98.938"
       y2="56.688"
       id="line334" /><line
       fill="#C9C9C9"
       stroke="#000000"
       stroke-width="2"
       stroke-linecap="round"
       stroke-linejoin="round"
       x1="108.938"
       y1="45.688"
       x2="95.063"
       y2="45.688"
       id="line336" /><line
       fill="#C9C9C9"
       stroke="#000000"
       stroke-width="2"
       stroke-linecap="round"
       stroke-linejoin="round"
       x1="101.938"
       y1="39"
       x2="101.938"
       y2="17.313"
       id="line338" /><polygon
       fill="#C9C9C9"
       stroke="#000000"
       stroke-width="2"
       stroke-linecap="round"
       stroke-linejoin="round"
       points="   106.501,12.188 105.626,9.938 104.063,8.188 101.625,7.5 99.25,8.188 97.5,9.938 96.813,12.188 97.5,14.625 99.25,16.313    101.625,16.938 104.063,16.313 105.626,14.625  "
       id="polygon340" /><polygon
       fill="#C9C9C9"
       stroke="#000000"
       stroke-width="2"
       stroke-linecap="round"
       stroke-linejoin="round"
       points="   106.501,12.188 105.626,9.938 104.063,8.188 101.625,7.5 99.25,8.188 97.5,9.938 96.813,12.188 97.5,14.625 99.25,16.313    101.625,16.938 104.063,16.313 105.626,14.625  "
       id="polygon342" /></g></svg>